#N canvas 960 1218 958 557 12;
#X obj 49 54 netreceive -u -b;
#X obj 49 83 oscparse;
#X msg 49 21 listen 1450;
#X obj 49 233 print VQH;
#X obj 49 128 route vqh;
#X obj 49 157 route expval mprob;
#X obj 49 205 print expval;
#X obj 144 206 print mprob;
#X obj 49 105 route list;
#X floatatom 205 123 5 0 0 0 - - - 0;
#X floatatom 244 123 5 0 0 0 - - - 0;
#X floatatom 284 122 5 0 0 0 - - - 0;
#X floatatom 325 121 5 0 0 0 - - - 0;
#X text 271 225 NOTE:VQH uses Big Endian binary notation!;
#X text 397 44 Marginal Probabilities;
#X floatatom 327 179 5 0 0 0 - - - 0;
#X text 381 150 Energy Expectation Value;
#X obj 57 183 send expval;
#X obj 161 185 send mprob;
#X obj 262 152 receive expval;
#X obj 266 47 receive mprob;
#X text 306 13 VQH OSC Mapping Example -Itaborala-;
#X obj 238 82 route s0 s1 s2 s3;
#X floatatom 385 123 5 0 0 0 - - - 0;
#X floatatom 424 123 5 0 0 0 - - - 0;
#X floatatom 464 122 5 0 0 0 - - - 0;
#X floatatom 505 121 5 0 0 0 - - - 0;
#X obj 418 82 route p0 p1 p2 p3;
#X connect 0 0 1 0;
#X connect 1 0 8 0;
#X connect 2 0 0 0;
#X connect 4 0 5 0;
#X connect 4 0 3 0;
#X connect 5 0 6 0;
#X connect 5 0 17 0;
#X connect 5 1 7 0;
#X connect 5 1 18 0;
#X connect 8 0 4 0;
#X connect 19 0 15 0;
#X connect 20 0 22 0;
#X connect 20 0 27 0;
#X connect 22 0 9 0;
#X connect 22 1 10 0;
#X connect 22 2 11 0;
#X connect 22 3 12 0;
#X connect 27 0 23 0;
#X connect 27 1 24 0;
#X connect 27 2 25 0;
#X connect 27 3 26 0;
